<svg xmlns="http://www.w3.org/2000/svg" version="1.1" xmlns:xlink="http://www.w3.org/1999/xlink" xmlns:svgjs="http://svgjs.com/svgjs" width="1950" height="1000" preserveAspectRatio="none" viewBox="0 0 1950 1000"><g mask="url(&quot;#SvgjsMask2833&quot;)" fill="none"><rect width="1950" height="1000" x="0" y="0" fill="url(#SvgjsLinearGradient2834)"></rect><path d="M0 -28L24.25 -14L24.25 14L0 28L-24.25 14L-24.25 -14zM24.25 14L48.5 28L48.5 56L24.25 70L0 56L0 28zM0 56L24.25 70L24.25 98L0 112L-24.25 98L-24.25 70zM24.25 98L48.5 112L48.5 140L24.25 154L0 140L0 112zM0 140L24.25 154L24.25 182L0 196L-24.25 182L-24.25 154zM24.25 182L48.5 196L48.5 224L24.25 238L0 224L0 196zM0 224L24.25 238L24.25 266L0 280L-24.25 266L-24.25 238zM24.25 266L48.5 280L48.5 308L24.25 322L0 308L0 280zM0 308L24.25 322L24.25 350L0 364L-24.25 350L-24.25 322zM24.25 350L48.5 364L48.5 392L24.25 406L0 392L0 364zM0 392L24.25 406L24.25 434L0 448L-24.25 434L-24.25 406zM24.25 434L48.5 448L48.5 476L24.25 490L0 476L0 448zM0 476L24.25 490L24.25 518L0 532L-24.25 518L-24.25 490zM24.25 518L48.5 532L48.5 560L24.25 574L0 560L0 532zM0 560L24.25 574L24.25 602L0 616L-24.25 602L-24.25 574zM24.25 602L48.5 616L48.5 644L24.25 658L0 644L0 616zM0 644L24.25 658L24.25 686L0 700L-24.25 686L-24.25 658zM24.25 686L48.5 700L48.5 728L24.25 742L0 728L0 700zM0 728L24.25 742L24.25 770L0 784L-24.25 770L-24.25 742zM24.25 770L48.5 784L48.5 812L24.25 826L0 812L0 784zM0 812L24.25 826L24.25 854L0 868L-24.25 854L-24.25 826zM24.25 854L48.5 868L48.5 896L24.25 910L0 896L0 868zM0 896L24.25 910L24.25 938L0 952L-24.25 938L-24.25 910zM24.25 938L48.5 952L48.5 980L24.25 994L0 980L0 952zM0 980L24.25 994L24.25 1022L0 1036L-24.25 1022L-24.25 994zM48.5 -28L72.75 -14L72.75 14L48.5 28L24.25 14L24.25 -14zM72.75 14L97 28L97 56L72.75 70L48.5 56L48.5 28zM48.5 56L72.75 70L72.75 98L48.5 112L24.25 98L24.25 70zM72.75 98L97 112L97 140L72.75 154L48.5 140L48.5 112zM48.5 140L72.75 154L72.75 182L48.5 196L24.25 182L24.25 154zM72.75 182L97 196L97 224L72.75 238L48.5 224L48.5 196zM48.5 224L72.75 238L72.75 266L48.5 280L24.25 266L24.25 238zM72.75 266L97 280L97 308L72.75 322L48.5 308L48.5 280zM48.5 308L72.75 322L72.75 350L48.5 364L24.25 350L24.25 322zM72.75 350L97 364L97 392L72.75 406L48.5 392L48.5 364zM48.5 392L72.75 406L72.75 434L48.5 448L24.25 434L24.25 406zM72.75 434L97 448L97 476L72.75 490L48.5 476L48.5 448zM48.5 476L72.75 490L72.75 518L48.5 532L24.25 518L24.25 490zM72.75 518L97 532L97 560L72.75 574L48.5 560L48.5 532zM48.5 560L72.75 574L72.75 602L48.5 616L24.25 602L24.25 574zM72.75 602L97 616L97 644L72.75 658L48.5 644L48.5 616zM48.5 644L72.75 658L72.75 686L48.5 700L24.25 686L24.25 658zM72.75 686L97 700L97 728L72.75 742L48.5 728L48.5 700zM48.5 728L72.75 742L72.75 770L48.5 784L24.25 770L24.25 742zM72.75 770L97 784L97 812L72.75 826L48.5 812L48.5 784zM48.5 812L72.75 826L72.75 854L48.5 868L24.25 854L24.25 826zM72.75 854L97 868L97 896L72.75 910L48.5 896L48.5 868zM48.5 896L72.75 910L72.75 938L48.5 952L24.25 938L24.25 910zM72.75 938L97 952L97 980L72.75 994L48.5 980L48.5 952zM48.5 980L72.75 994L72.75 1022L48.5 1036L24.25 1022L24.25 994zM97 -28L121.25 -14L121.25 14L97 28L72.75 14L72.75 -14zM121.25 14L145.5 28L145.5 56L121.25 70L97 56L97 28zM97 56L121.25 70L121.25 98L97 112L72.75 98L72.75 70zM121.25 98L145.5 112L145.5 140L121.25 154L97 140L97 112zM97 140L121.25 154L121.25 182L97 196L72.75 182L72.75 154zM121.25 182L145.5 196L145.5 224L121.25 238L97 224L97 196zM97 224L121.25 238L121.25 266L97 280L72.75 266L72.75 238zM121.25 266L145.5 280L145.5 308L121.25 322L97 308L97 280zM97 308L121.25 322L121.25 350L97 364L72.75 350L72.75 322zM121.25 350L145.5 364L145.5 392L121.25 406L97 392L97 364zM97 392L121.25 406L121.25 434L97 448L72.75 434L72.75 406zM121.25 434L145.5 448L145.5 476L121.25 490L97 476L97 448zM97 476L121.25 490L121.25 518L97 532L72.75 518L72.75 490zM121.25 518L145.5 532L145.5 560L121.25 574L97 560L97 532zM97 560L121.25 574L121.25 602L97 616L72.75 602L72.75 574zM121.25 602L145.5 616L145.5 644L121.25 658L97 644L97 616zM97 644L121.25 658L121.25 686L97 700L72.75 686L72.75 658zM121.25 686L145.5 700L145.5 728L121.25 742L97 728L97 700zM97 728L121.25 742L121.25 770L97 784L72.75 770L72.75 742zM121.25 770L145.5 784L145.5 812L121.25 826L97 812L97 784zM97 812L121.25 826L121.25 854L97 868L72.75 854L72.75 826zM121.25 854L145.5 868L145.5 896L121.25 910L97 896L97 868zM97 896L121.25 910L121.25 938L97 952L72.75 938L72.75 910zM121.25 938L145.5 952L145.5 980L121.25 994L97 980L97 952zM97 980L121.25 994L121.25 1022L97 1036L72.75 1022L72.75 994zM145.5 -28L169.75 -14L169.75 14L145.5 28L121.25 14L121.25 -14zM169.75 14L194 28L194 56L169.75 70L145.5 56L145.5 28zM145.5 56L169.75 70L169.75 98L145.5 112L121.25 98L121.25 70zM169.75 98L194 112L194 140L169.75 154L145.5 140L145.5 112zM145.5 140L169.75 154L169.75 182L145.5 196L121.25 182L121.25 154zM169.75 182L194 196L194 224L169.75 238L145.5 224L145.5 196zM145.5 224L169.75 238L169.75 266L145.5 280L121.25 266L121.25 238zM169.75 266L194 280L194 308L169.75 322L145.5 308L145.5 280zM145.5 308L169.75 322L169.75 350L145.5 364L121.25 350L121.25 322zM169.75 350L194 364L194 392L169.75 406L145.5 392L145.5 364zM145.5 392L169.75 406L169.75 434L145.5 448L121.25 434L121.25 406zM169.75 434L194 448L194 476L169.75 490L145.5 476L145.5 448zM145.5 476L169.75 490L169.75 518L145.5 532L121.25 518L121.25 490zM169.75 518L194 532L194 560L169.75 574L145.5 560L145.5 532zM145.5 560L169.75 574L169.75 602L145.5 616L121.25 602L121.25 574zM169.75 602L194 616L194 644L169.75 658L145.5 644L145.5 616zM145.5 644L169.75 658L169.75 686L145.5 700L121.25 686L121.25 658zM169.75 686L194 700L194 728L169.75 742L145.5 728L145.5 700zM145.5 728L169.75 742L169.75 770L145.5 784L121.25 770L121.25 742zM169.75 770L194 784L194 812L169.75 826L145.5 812L145.5 784zM145.5 812L169.75 826L169.75 854L145.5 868L121.25 854L121.25 826zM169.75 854L194 868L194 896L169.75 910L145.5 896L145.5 868zM145.5 896L169.75 910L169.75 938L145.5 952L121.25 938L121.25 910zM169.75 938L194 952L194 980L169.75 994L145.5 980L145.5 952zM145.5 980L169.75 994L169.75 1022L145.5 1036L121.25 1022L121.25 994zM194 -28L218.24 -14L218.24 14L194 28L169.75 14L169.75 -14zM218.24 14L242.49 28L242.49 56L218.24 70L194 56L194 28zM194 56L218.24 70L218.24 98L194 112L169.75 98L169.75 70zM218.24 98L242.49 112L242.49 140L218.24 154L194 140L194 112zM194 140L218.24 154L218.24 182L194 196L169.75 182L169.75 154zM218.24 182L242.49 196L242.49 224L218.24 238L194 224L194 196zM194 224L218.24 238L218.24 266L194 280L169.75 266L169.75 238zM218.24 266L242.49 280L242.49 308L218.24 322L194 308L194 280zM194 308L218.24 322L218.24 350L194 364L169.75 350L169.75 322zM218.24 350L242.49 364L242.49 392L218.24 406L194 392L194 364zM194 392L218.24 406L218.24 434L194 448L169.75 434L169.75 406zM218.24 434L242.49 448L242.49 476L218.24 490L194 476L194 448zM194 476L218.24 490L218.24 518L194 532L169.75 518L169.75 490zM218.24 518L242.49 532L242.49 560L218.24 574L194 560L194 532zM194 560L218.24 574L218.24 602L194 616L169.75 602L169.75 574zM218.24 602L242.49 616L242.49 644L218.24 658L194 644L194 616zM194 644L218.24 658L218.24 686L194 700L169.75 686L169.75 658zM218.24 686L242.49 700L242.49 728L218.24 742L194 728L194 700zM194 728L218.24 742L218.24 770L194 784L169.75 770L169.75 742zM218.24 770L242.49 784L242.49 812L218.24 826L194 812L194 784zM194 812L218.24 826L218.24 854L194 868L169.75 854L169.75 826zM218.24 854L242.49 868L242.49 896L218.24 910L194 896L194 868zM194 896L218.24 910L218.24 938L194 952L169.75 938L169.75 910zM218.24 938L242.49 952L242.49 980L218.24 994L194 980L194 952zM194 980L218.24 994L218.24 1022L194 1036L169.75 1022L169.75 994zM242.49 -28L266.74 -14L266.74 14L242.49 28L218.24 14L218.24 -14zM266.74 14L290.99 28L290.99 56L266.74 70L242.49 56L242.49 28zM242.49 56L266.74 70L266.74 98L242.49 112L218.24 98L218.24 70zM266.74 98L290.99 112L290.99 140L266.74 154L242.49 140L242.49 112zM242.49 140L266.74 154L266.74 182L242.49 196L218.24 182L218.24 154zM266.74 182L290.99 196L290.99 224L266.74 238L242.49 224L242.49 196zM242.49 224L266.74 238L266.74 266L242.49 280L218.24 266L218.24 238zM266.74 266L290.99 280L290.99 308L266.74 322L242.49 308L242.49 280zM242.49 308L266.74 322L266.74 350L242.49 364L218.24 350L218.24 322zM266.74 350L290.99 364L290.99 392L266.74 406L242.49 392L242.49 364zM242.49 392L266.74 406L266.74 434L242.49 448L218.24 434L218.24 406zM266.74 434L290.99 448L290.99 476L266.74 490L242.49 476L242.49 448zM242.49 476L266.74 490L266.74 518L242.49 532L218.24 518L218.24 490zM266.74 518L290.99 532L290.99 560L266.74 574L242.49 560L242.49 532zM242.49 560L266.74 574L266.74 602L242.49 616L218.24 602L218.24 574zM266.74 602L290.99 616L290.99 644L266.74 658L242.49 644L242.49 616zM242.49 644L266.74 658L266.74 686L242.49 700L218.24 686L218.24 658zM266.74 686L290.99 700L290.99 728L266.74 742L242.49 728L242.49 700zM242.49 728L266.74 742L266.74 770L242.49 784L218.24 770L218.24 742zM266.74 770L290.99 784L290.99 812L266.74 826L242.49 812L242.49 784zM242.49 812L266.74 826L266.74 854L242.49 868L218.24 854L218.24 826zM266.74 854L290.99 868L290.99 896L266.74 910L242.49 896L242.49 868zM242.49 896L266.74 910L266.74 938L242.49 952L218.24 938L218.24 910zM266.74 938L290.99 952L290.99 980L266.74 994L242.49 980L242.49 952zM242.49 980L266.74 994L266.74 1022L242.49 1036L218.24 1022L218.24 994zM290.99 -28L315.24 -14L315.24 14L290.99 28L266.74 14L266.74 -14zM315.24 14L339.49 28L339.49 56L315.24 70L290.99 56L290.99 28zM290.99 56L315.24 70L315.24 98L290.99 112L266.74 98L266.74 70zM315.24 98L339.49 112L339.49 140L315.24 154L290.99 140L290.99 112zM290.99 140L315.24 154L315.24 182L290.99 196L266.74 182L266.74 154zM315.24 182L339.49 196L339.49 224L315.24 238L290.99 224L290.99 196zM290.99 224L315.24 238L315.24 266L290.99 280L266.74 266L266.74 238zM315.24 266L339.49 280L339.49 308L315.24 322L290.99 308L290.99 280zM290.99 308L315.24 322L315.24 350L290.99 364L266.74 350L266.74 322zM315.24 350L339.49 364L339.49 392L315.24 406L290.99 392L290.99 364zM290.99 392L315.24 406L315.24 434L290.99 448L266.74 434L266.74 406zM315.24 434L339.49 448L339.49 476L315.24 490L290.99 476L290.99 448zM290.99 476L315.24 490L315.24 518L290.99 532L266.74 518L266.74 490zM315.24 518L339.49 532L339.49 560L315.24 574L290.99 560L290.99 532zM290.99 560L315.24 574L315.24 602L290.99 616L266.74 602L266.74 574zM315.24 602L339.49 616L339.49 644L315.24 658L290.99 644L290.99 616zM290.99 644L315.24 658L315.24 686L290.99 700L266.74 686L266.74 658zM315.24 686L339.49 700L339.49 728L315.24 742L290.99 728L290.99 700zM290.99 728L315.24 742L315.24 770L290.99 784L266.74 770L266.74 742zM315.24 770L339.49 784L339.49 812L315.24 826L290.99 812L290.99 784zM290.99 812L315.24 826L315.24 854L290.99 868L266.74 854L266.74 826zM315.24 854L339.49 868L339.49 896L315.24 910L290.99 896L290.99 868zM290.99 896L315.24 910L315.24 938L290.99 952L266.74 938L266.74 910zM315.24 938L339.49 952L339.49 980L315.24 994L290.99 980L290.99 952zM290.99 980L315.24 994L315.24 1022L290.99 1036L266.74 1022L266.74 994zM339.49 -28L363.74 -14L363.74 14L339.49 28L315.24 14L315.24 -14zM363.74 14L387.99 28L387.99 56L363.74 70L339.49 56L339.49 28zM339.49 56L363.74 70L363.74 98L339.49 112L315.24 98L315.24 70zM363.74 98L387.99 112L387.99 140L363.74 154L339.49 140L339.49 112zM339.49 140L363.74 154L363.74 182L339.49 196L315.24 182L315.24 154zM363.74 182L387.99 196L387.99 224L363.74 238L339.49 224L339.49 196zM339.49 224L363.74 238L363.74 266L339.49 280L315.24 266L315.24 238zM363.74 266L387.99 280L387.99 308L363.74 322L339.49 308L339.49 280zM339.49 308L363.74 322L363.74 350L339.49 364L315.24 350L315.24 322zM363.74 350L387.99 364L387.99 392L363.74 406L339.49 392L339.49 364zM339.49 392L363.74 406L363.74 434L339.49 448L315.24 434L315.24 406zM363.74 434L387.99 448L387.99 476L363.74 490L339.49 476L339.49 448zM339.49 476L363.74 490L363.74 518L339.49 532L315.24 518L315.24 490zM363.74 518L387.99 532L387.99 560L363.74 574L339.49 560L339.49 532zM339.49 560L363.74 574L363.74 602L339.49 616L315.24 602L315.24 574zM363.74 602L387.99 616L387.99 644L363.74 658L339.49 644L339.49 616zM339.49 644L363.74 658L363.74 686L339.49 700L315.24 686L315.24 658zM363.74 686L387.99 700L387.99 728L363.74 742L339.49 728L339.49 700zM339.49 728L363.74 742L363.74 770L339.49 784L315.24 770L315.24 742zM363.74 770L387.99 784L387.99 812L363.74 826L339.49 812L339.49 784zM339.49 812L363.74 826L363.74 854L339.49 868L315.24 854L315.24 826zM363.74 854L387.99 868L387.99 896L363.74 910L339.49 896L339.49 868zM339.49 896L363.74 910L363.74 938L339.49 952L315.24 938L315.24 910zM363.74 938L387.99 952L387.99 980L363.74 994L339.49 980L339.49 952zM339.49 980L363.74 994L363.74 1022L339.49 1036L315.24 1022L315.24 994zM387.99 -28L412.24 -14L412.24 14L387.99 28L363.74 14L363.74 -14zM412.24 14L436.49 28L436.49 56L412.24 70L387.99 56L387.99 28zM387.99 56L412.24 70L412.24 98L387.99 112L363.74 98L363.74 70zM412.24 98L436.49 112L436.49 140L412.24 154L387.99 140L387.99 112zM387.99 140L412.24 154L412.24 182L387.99 196L363.74 182L363.74 154zM412.24 182L436.49 196L436.49 224L412.24 238L387.99 224L387.99 196zM387.99 224L412.24 238L412.24 266L387.99 280L363.74 266L363.74 238zM412.24 266L436.49 280L436.49 308L412.24 322L387.99 308L387.99 280zM387.99 308L412.24 322L412.24 350L387.99 364L363.74 350L363.74 322zM412.24 350L436.49 364L436.49 392L412.24 406L387.99 392L387.99 364zM387.99 392L412.24 406L412.24 434L387.99 448L363.74 434L363.74 406zM412.24 434L436.49 448L436.49 476L412.24 490L387.99 476L387.99 448zM387.99 476L412.24 490L412.24 518L387.99 532L363.74 518L363.74 490zM412.24 518L436.49 532L436.49 560L412.24 574L387.99 560L387.99 532zM387.99 560L412.24 574L412.24 602L387.99 616L363.74 602L363.74 574zM412.24 602L436.49 616L436.49 644L412.24 658L387.99 644L387.99 616zM387.99 644L412.24 658L412.24 686L387.99 700L363.74 686L363.74 658zM412.24 686L436.49 700L436.49 728L412.24 742L387.99 728L387.99 700zM387.99 728L412.24 742L412.24 770L387.99 784L363.74 770L363.74 742zM412.24 770L436.49 784L436.49 812L412.24 826L387.99 812L387.99 784zM387.99 812L412.24 826L412.24 854L387.99 868L363.74 854L363.74 826zM412.24 854L436.49 868L436.49 896L412.24 910L387.99 896L387.99 868zM387.99 896L412.24 910L412.24 938L387.99 952L363.74 938L363.74 910zM412.24 938L436.49 952L436.49 980L412.24 994L387.99 980L387.99 952zM387.99 980L412.24 994L412.24 1022L387.99 1036L363.74 1022L363.74 994zM436.49 -28L460.74 -14L460.74 14L436.49 28L412.24 14L412.24 -14zM460.74 14L484.99 28L484.99 56L460.74 70L436.49 56L436.49 28zM436.49 56L460.74 70L460.74 98L436.49 112L412.24 98L412.24 70zM460.74 98L484.99 112L484.99 140L460.74 154L436.49 140L436.49 112zM436.49 140L460.74 154L460.74 182L436.49 196L412.24 182L412.24 154zM460.74 182L484.99 196L484.99 224L460.74 238L436.49 224L436.49 196zM436.49 224L460.74 238L460.74 266L436.49 280L412.24 266L412.24 238zM460.74 266L484.99 280L484.99 308L460.74 322L436.49 308L436.49 280zM436.49 308L460.74 322L460.74 350L436.49 364L412.24 350L412.24 322zM460.74 350L484.99 364L484.99 392L460.74 406L436.49 392L436.49 364zM436.49 392L460.74 406L460.74 434L436.49 448L412.24 434L412.24 406zM460.74 434L484.99 448L484.99 476L460.74 490L436.49 476L436.49 448zM436.49 476L460.74 490L460.74 518L436.49 532L412.24 518L412.24 490zM460.74 518L484.99 532L484.99 560L460.74 574L436.49 560L436.49 532zM436.49 560L460.74 574L460.74 602L436.49 616L412.24 602L412.24 574zM460.74 602L484.99 616L484.99 644L460.74 658L436.49 644L436.49 616zM436.49 644L460.74 658L460.74 686L436.49 700L412.24 686L412.24 658zM460.74 686L484.99 700L484.99 728L460.74 742L436.49 728L436.49 700zM436.49 728L460.74 742L460.74 770L436.49 784L412.24 770L412.24 742zM460.74 770L484.99 784L484.99 812L460.74 826L436.49 812L436.49 784zM436.49 812L460.74 826L460.74 854L436.49 868L412.24 854L412.24 826zM460.74 854L484.99 868L484.99 896L460.74 910L436.49 896L436.49 868zM436.49 896L460.74 910L460.74 938L436.49 952L412.24 938L412.24 910zM460.74 938L484.99 952L484.99 980L460.74 994L436.49 980L436.49 952zM436.49 980L460.74 994L460.74 1022L436.49 1036L412.24 1022L412.24 994zM484.99 -28L509.24 -14L509.24 14L484.99 28L460.74 14L460.74 -14zM509.24 14L533.49 28L533.49 56L509.24 70L484.99 56L484.99 28zM484.99 56L509.24 70L509.24 98L484.99 112L460.74 98L460.74 70zM509.24 98L533.49 112L533.49 140L509.24 154L484.99 140L484.99 112zM484.99 140L509.24 154L509.24 182L484.99 196L460.74 182L460.74 154zM509.24 182L533.49 196L533.49 224L509.24 238L484.99 224L484.99 196zM484.99 224L509.24 238L509.24 266L484.99 280L460.74 266L460.74 238zM509.24 266L533.49 280L533.49 308L509.24 322L484.99 308L484.99 280zM484.99 308L509.24 322L509.24 350L484.99 364L460.74 350L460.74 322zM509.24 350L533.49 364L533.49 392L509.24 406L484.99 392L484.99 364zM484.99 392L509.24 406L509.24 434L484.99 448L460.74 434L460.74 406zM509.24 434L533.49 448L533.49 476L509.24 490L484.99 476L484.99 448zM484.99 476L509.24 490L509.24 518L484.99 532L460.74 518L460.74 490zM509.24 518L533.49 532L533.49 560L509.24 574L484.99 560L484.99 532zM484.99 560L509.24 574L509.24 602L484.99 616L460.74 602L460.74 574zM509.24 602L533.49 616L533.49 644L509.24 658L484.99 644L484.99 616zM484.99 644L509.24 658L509.24 686L484.99 700L460.74 686L460.74 658zM509.24 686L533.49 700L533.49 728L509.24 742L484.99 728L484.99 700zM484.99 728L509.24 742L509.24 770L484.99 784L460.74 770L460.74 742zM509.24 770L533.49 784L533.49 812L509.24 826L484.99 812L484.99 784zM484.99 812L509.24 826L509.24 854L484.99 868L460.74 854L460.74 826zM509.24 854L533.49 868L533.49 896L509.24 910L484.99 896L484.99 868zM484.99 896L509.24 910L509.24 938L484.99 952L460.74 938L460.74 910zM509.24 938L533.49 952L533.49 980L509.24 994L484.99 980L484.99 952zM484.99 980L509.24 994L509.24 1022L484.99 1036L460.74 1022L460.74 994zM533.49 -28L557.74 -14L557.74 14L533.49 28L509.24 14L509.24 -14zM557.74 14L581.99 28L581.99 56L557.74 70L533.49 56L533.49 28zM533.49 56L557.74 70L557.74 98L533.49 112L509.24 98L509.24 70zM557.74 98L581.99 112L581.99 140L557.74 154L533.49 140L533.49 112zM533.49 140L557.74 154L557.74 182L533.49 196L509.24 182L509.24 154zM557.74 182L581.99 196L581.99 224L557.74 238L533.49 224L533.49 196zM533.49 224L557.74 238L557.74 266L533.49 280L509.24 266L509.24 238zM557.74 266L581.99 280L581.99 308L557.74 322L533.49 308L533.49 280zM533.49 308L557.74 322L557.74 350L533.49 364L509.24 350L509.24 322zM557.74 350L581.99 364L581.99 392L557.74 406L533.49 392L533.49 364zM533.49 392L557.74 406L557.74 434L533.49 448L509.24 434L509.24 406zM557.74 434L581.99 448L581.99 476L557.74 490L533.49 476L533.49 448zM533.49 476L557.74 490L557.74 518L533.49 532L509.24 518L509.24 490zM557.74 518L581.99 532L581.99 560L557.74 574L533.49 560L533.49 532zM533.49 560L557.74 574L557.74 602L533.49 616L509.24 602L509.24 574zM557.74 602L581.99 616L581.99 644L557.74 658L533.49 644L533.49 616zM533.49 644L557.74 658L557.74 686L533.49 700L509.24 686L509.24 658zM557.74 686L581.99 700L581.99 728L557.74 742L533.49 728L533.49 700zM533.49 728L557.74 742L557.74 770L533.49 784L509.24 770L509.24 742zM557.74 770L581.99 784L581.99 812L557.74 826L533.49 812L533.49 784zM533.49 812L557.74 826L557.74 854L533.49 868L509.24 854L509.24 826zM557.74 854L581.99 868L581.99 896L557.74 910L533.49 896L533.49 868zM533.49 896L557.74 910L557.74 938L533.49 952L509.24 938L509.24 910zM557.74 938L581.99 952L581.99 980L557.74 994L533.49 980L533.49 952zM533.49 980L557.74 994L557.74 1022L533.49 1036L509.24 1022L509.24 994zM581.99 -28L606.24 -14L606.24 14L581.99 28L557.74 14L557.74 -14zM606.24 14L630.48 28L630.48 56L606.24 70L581.99 56L581.99 28zM581.99 56L606.24 70L606.24 98L581.99 112L557.74 98L557.74 70zM606.24 98L630.48 112L630.48 140L606.24 154L581.99 140L581.99 112zM581.99 140L606.24 154L606.24 182L581.99 196L557.74 182L557.74 154zM606.24 182L630.48 196L630.48 224L606.24 238L581.99 224L581.99 196zM581.99 224L606.24 238L606.24 266L581.99 280L557.74 266L557.74 238zM606.24 266L630.48 280L630.48 308L606.24 322L581.99 308L581.99 280zM581.99 308L606.24 322L606.24 350L581.99 364L557.74 350L557.74 322zM606.24 350L630.48 364L630.48 392L606.24 406L581.99 392L581.99 364zM581.99 392L606.24 406L606.24 434L581.99 448L557.74 434L557.74 406zM606.24 434L630.48 448L630.48 476L606.24 490L581.99 476L581.99 448zM581.99 476L606.24 490L606.24 518L581.99 532L557.74 518L557.74 490zM606.24 518L630.48 532L630.48 560L606.24 574L581.99 560L581.99 532zM581.99 560L606.24 574L606.24 602L581.99 616L557.74 602L557.74 574zM606.24 602L630.48 616L630.48 644L606.24 658L581.99 644L581.99 616zM581.99 644L606.24 658L606.24 686L581.99 700L557.74 686L557.74 658zM606.24 686L630.48 700L630.48 728L606.24 742L581.99 728L581.99 700zM581.99 728L606.24 742L606.24 770L581.99 784L557.74 770L557.74 742zM606.24 770L630.48 784L630.48 812L606.24 826L581.99 812L581.99 784zM581.99 812L606.24 826L606.24 854L581.99 868L557.74 854L557.74 826zM606.24 854L630.48 868L630.48 896L606.24 910L581.99 896L581.99 868zM581.99 896L606.24 910L606.24 938L581.99 952L557.74 938L557.74 910zM606.24 938L630.48 952L630.48 980L606.24 994L581.99 980L581.99 952zM581.99 980L606.24 994L606.24 1022L581.99 1036L557.74 1022L557.74 994zM630.48 -28L654.73 -14L654.73 14L630.48 28L606.24 14L606.24 -14zM654.73 14L678.98 28L678.98 56L654.73 70L630.48 56L630.48 28zM630.48 56L654.73 70L654.73 98L630.48 112L606.24 98L606.24 70zM654.73 98L678.98 112L678.98 140L654.73 154L630.48 140L630.48 112zM630.48 140L654.73 154L654.73 182L630.48 196L606.24 182L606.24 154zM654.73 182L678.98 196L678.98 224L654.73 238L630.48 224L630.48 196zM630.48 224L654.73 238L654.73 266L630.48 280L606.24 266L606.24 238zM654.73 266L678.98 280L678.98 308L654.73 322L630.48 308L630.48 280zM630.48 308L654.73 322L654.73 350L630.48 364L606.24 350L606.24 322zM654.73 350L678.98 364L678.98 392L654.73 406L630.48 392L630.48 364zM630.48 392L654.73 406L654.73 434L630.48 448L606.24 434L606.24 406zM654.73 434L678.98 448L678.98 476L654.73 490L630.48 476L630.48 448zM630.48 476L654.73 490L654.73 518L630.48 532L606.24 518L606.24 490zM654.73 518L678.98 532L678.98 560L654.73 574L630.48 560L630.48 532zM630.48 560L654.73 574L654.73 602L630.48 616L606.24 602L606.24 574zM654.73 602L678.98 616L678.98 644L654.73 658L630.48 644L630.48 616zM630.48 644L654.73 658L654.73 686L630.48 700L606.24 686L606.24 658zM654.73 686L678.98 700L678.98 728L654.73 742L630.48 728L630.48 700zM630.48 728L654.73 742L654.73 770L630.48 784L606.24 770L606.24 742zM654.73 770L678.98 784L678.98 812L654.73 826L630.48 812L630.48 784zM630.48 812L654.73 826L654.73 854L630.48 868L606.24 854L606.24 826zM654.73 854L678.98 868L678.98 896L654.73 910L630.48 896L630.48 868zM630.48 896L654.73 910L654.73 938L630.48 952L606.24 938L606.24 910zM654.73 938L678.98 952L678.98 980L654.73 994L630.48 980L630.48 952zM630.48 980L654.73 994L654.73 1022L630.48 1036L606.24 1022L606.24 994zM678.98 -28L703.23 -14L703.23 14L678.98 28L654.73 14L654.73 -14zM703.23 14L727.48 28L727.48 56L703.23 70L678.98 56L678.98 28zM678.98 56L703.23 70L703.23 98L678.98 112L654.73 98L654.73 70zM703.23 98L727.48 112L727.48 140L703.23 154L678.98 140L678.98 112zM678.98 140L703.23 154L703.23 182L678.98 196L654.73 182L654.73 154zM703.23 182L727.48 196L727.48 224L703.23 238L678.98 224L678.98 196zM678.98 224L703.23 238L703.23 266L678.98 280L654.73 266L654.73 238zM703.23 266L727.48 280L727.48 308L703.23 322L678.98 308L678.98 280zM678.98 308L703.23 322L703.23 350L678.98 364L654.73 350L654.73 322zM703.23 350L727.48 364L727.48 392L703.23 406L678.98 392L678.98 364zM678.98 392L703.23 406L703.23 434L678.98 448L654.73 434L654.73 406zM703.23 434L727.48 448L727.48 476L703.23 490L678.98 476L678.98 448zM678.98 476L703.23 490L703.23 518L678.98 532L654.73 518L654.73 490zM703.23 518L727.48 532L727.48 560L703.23 574L678.98 560L678.98 532zM678.98 560L703.23 574L703.23 602L678.98 616L654.73 602L654.73 574zM703.23 602L727.48 616L727.48 644L703.23 658L678.98 644L678.98 616zM678.98 644L703.23 658L703.23 686L678.98 700L654.73 686L654.73 658zM703.23 686L727.48 700L727.48 728L703.23 742L678.98 728L678.98 700zM678.98 728L703.23 742L703.23 770L678.98 784L654.73 770L654.73 742zM703.23 770L727.48 784L727.48 812L703.23 826L678.98 812L678.98 784zM678.98 812L703.23 826L703.23 854L678.98 868L654.73 854L654.73 826zM703.23 854L727.48 868L727.48 896L703.23 910L678.98 896L678.98 868zM678.98 896L703.23 910L703.23 938L678.98 952L654.73 938L654.73 910zM703.23 938L727.48 952L727.48 980L703.23 994L678.98 980L678.98 952zM678.98 980L703.23 994L703.23 1022L678.98 1036L654.73 1022L654.73 994zM727.48 -28L751.73 -14L751.73 14L727.48 28L703.23 14L703.23 -14zM751.73 14L775.98 28L775.98 56L751.73 70L727.48 56L727.48 28zM727.48 56L751.73 70L751.73 98L727.48 112L703.23 98L703.23 70zM751.73 98L775.98 112L775.98 140L751.73 154L727.48 140L727.48 112zM727.48 140L751.73 154L751.73 182L727.48 196L703.23 182L703.23 154zM751.73 182L775.98 196L775.98 224L751.73 238L727.48 224L727.48 196zM727.48 224L751.73 238L751.73 266L727.48 280L703.23 266L703.23 238zM751.73 266L775.98 280L775.98 308L751.73 322L727.48 308L727.48 280zM727.48 308L751.73 322L751.73 350L727.48 364L703.23 350L703.23 322zM751.73 350L775.98 364L775.98 392L751.73 406L727.48 392L727.48 364zM727.48 392L751.73 406L751.73 434L727.48 448L703.23 434L703.23 406zM751.73 434L775.98 448L775.98 476L751.73 490L727.48 476L727.48 448zM727.48 476L751.73 490L751.73 518L727.48 532L703.23 518L703.23 490zM751.73 518L775.98 532L775.98 560L751.73 574L727.48 560L727.48 532zM727.48 560L751.73 574L751.73 602L727.48 616L703.23 602L703.23 574zM751.73 602L775.98 616L775.98 644L751.73 658L727.48 644L727.48 616zM727.48 644L751.73 658L751.73 686L727.48 700L703.23 686L703.23 658zM751.73 686L775.98 700L775.98 728L751.73 742L727.48 728L727.48 700zM727.48 728L751.73 742L751.73 770L727.48 784L703.23 770L703.23 742zM751.73 770L775.98 784L775.98 812L751.73 826L727.48 812L727.48 784zM727.48 812L751.73 826L751.73 854L727.48 868L703.23 854L703.23 826zM751.73 854L775.98 868L775.98 896L751.73 910L727.48 896L727.48 868zM727.48 896L751.73 910L751.73 938L727.48 952L703.23 938L703.23 910zM751.73 938L775.98 952L775.98 980L751.73 994L727.48 980L727.48 952zM727.48 980L751.73 994L751.73 1022L727.48 1036L703.23 1022L703.23 994zM775.98 -28L800.23 -14L800.23 14L775.98 28L751.73 14L751.73 -14zM800.23 14L824.48 28L824.48 56L800.23 70L775.98 56L775.98 28zM775.98 56L800.23 70L800.23 98L775.98 112L751.73 98L751.73 70zM800.23 98L824.48 112L824.48 140L800.23 154L775.98 140L775.98 112zM775.98 140L800.23 154L800.23 182L775.98 196L751.73 182L751.73 154zM800.23 182L824.48 196L824.48 224L800.23 238L775.98 224L775.98 196zM775.98 224L800.23 238L800.23 266L775.98 280L751.73 266L751.73 238zM800.23 266L824.48 280L824.48 308L800.23 322L775.98 308L775.98 280zM775.98 308L800.23 322L800.23 350L775.98 364L751.73 350L751.73 322zM800.23 350L824.48 364L824.48 392L800.23 406L775.98 392L775.98 364zM775.98 392L800.23 406L800.23 434L775.98 448L751.73 434L751.73 406zM800.23 434L824.48 448L824.48 476L800.23 490L775.98 476L775.98 448zM775.98 476L800.23 490L800.23 518L775.98 532L751.73 518L751.73 490zM800.23 518L824.48 532L824.48 560L800.23 574L775.98 560L775.98 532zM775.98 560L800.23 574L800.23 602L775.98 616L751.73 602L751.73 574zM800.23 602L824.48 616L824.48 644L800.23 658L775.98 644L775.98 616zM775.98 644L800.23 658L800.23 686L775.98 700L751.73 686L751.73 658zM800.23 686L824.48 700L824.48 728L800.23 742L775.98 728L775.98 700zM775.98 728L800.23 742L800.23 770L775.98 784L751.73 770L751.73 742zM800.23 770L824.48 784L824.48 812L800.23 826L775.98 812L775.98 784zM775.98 812L800.23 826L800.23 854L775.98 868L751.73 854L751.73 826zM800.23 854L824.48 868L824.48 896L800.23 910L775.98 896L775.98 868zM775.98 896L800.23 910L800.23 938L775.98 952L751.73 938L751.73 910zM800.23 938L824.48 952L824.48 980L800.23 994L775.98 980L775.98 952zM775.98 980L800.23 994L800.23 1022L775.98 1036L751.73 1022L751.73 994zM824.48 -28L848.73 -14L848.73 14L824.48 28L800.23 14L800.23 -14zM848.73 14L872.98 28L872.98 56L848.73 70L824.48 56L824.48 28zM824.48 56L848.73 70L848.73 98L824.48 112L800.23 98L800.23 70zM848.73 98L872.98 112L872.98 140L848.73 154L824.48 140L824.48 112zM824.48 140L848.73 154L848.73 182L824.48 196L800.23 182L800.23 154zM848.73 182L872.98 196L872.98 224L848.73 238L824.48 224L824.48 196zM824.48 224L848.73 238L848.73 266L824.48 280L800.23 266L800.23 238zM848.73 266L872.98 280L872.98 308L848.73 322L824.48 308L824.48 280zM824.48 308L848.73 322L848.73 350L824.48 364L800.23 350L800.23 322zM848.73 350L872.98 364L872.98 392L848.73 406L824.48 392L824.48 364zM824.48 392L848.73 406L848.73 434L824.48 448L800.23 434L800.23 406zM848.73 434L872.98 448L872.98 476L848.73 490L824.48 476L824.48 448zM824.48 476L848.73 490L848.73 518L824.48 532L800.23 518L800.23 490zM848.73 518L872.98 532L872.98 560L848.73 574L824.48 560L824.48 532zM824.48 560L848.73 574L848.73 602L824.48 616L800.23 602L800.23 574zM848.73 602L872.98 616L872.98 644L848.73 658L824.48 644L824.48 616zM824.48 644L848.73 658L848.73 686L824.48 700L800.23 686L800.23 658zM848.73 686L872.98 700L872.98 728L848.73 742L824.48 728L824.48 700zM824.48 728L848.73 742L848.73 770L824.48 784L800.23 770L800.23 742zM848.73 770L872.98 784L872.98 812L848.73 826L824.48 812L824.48 784zM824.48 812L848.73 826L848.73 854L824.48 868L800.23 854L800.23 826zM848.73 854L872.98 868L872.98 896L848.73 910L824.48 896L824.48 868zM824.48 896L848.73 910L848.73 938L824.48 952L800.23 938L800.23 910zM848.73 938L872.98 952L872.98 980L848.73 994L824.48 980L824.48 952zM824.48 980L848.73 994L848.73 1022L824.48 1036L800.23 1022L800.23 994zM872.98 -28L897.23 -14L897.23 14L872.98 28L848.73 14L848.73 -14zM897.23 14L921.48 28L921.48 56L897.23 70L872.98 56L872.98 28zM872.98 56L897.23 70L897.23 98L872.98 112L848.73 98L848.73 70zM897.23 98L921.48 112L921.48 140L897.23 154L872.98 140L872.98 112zM872.98 140L897.23 154L897.23 182L872.98 196L848.73 182L848.73 154zM897.23 182L921.48 196L921.48 224L897.23 238L872.98 224L872.98 196zM872.98 224L897.23 238L897.23 266L872.98 280L848.73 266L848.73 238zM897.23 266L921.48 280L921.48 308L897.23 322L872.98 308L872.98 280zM872.98 308L897.23 322L897.23 350L872.98 364L848.73 350L848.73 322zM897.23 350L921.48 364L921.48 392L897.23 406L872.98 392L872.98 364zM872.98 392L897.23 406L897.23 434L872.98 448L848.73 434L848.73 406zM897.23 434L921.48 448L921.48 476L897.23 490L872.98 476L872.98 448zM872.98 476L897.23 490L897.23 518L872.98 532L848.73 518L848.73 490zM897.23 518L921.48 532L921.48 560L897.23 574L872.98 560L872.98 532zM872.98 560L897.23 574L897.23 602L872.98 616L848.73 602L848.73 574zM897.23 602L921.48 616L921.48 644L897.23 658L872.98 644L872.98 616zM872.98 644L897.23 658L897.23 686L872.98 700L848.73 686L848.73 658zM897.23 686L921.48 700L921.48 728L897.23 742L872.98 728L872.98 700zM872.98 728L897.23 742L897.23 770L872.98 784L848.73 770L848.73 742zM897.23 770L921.48 784L921.48 812L897.23 826L872.98 812L872.98 784zM872.98 812L897.23 826L897.23 854L872.98 868L848.73 854L848.73 826zM897.23 854L921.48 868L921.48 896L897.23 910L872.98 896L872.98 868zM872.98 896L897.23 910L897.23 938L872.98 952L848.73 938L848.73 910zM897.23 938L921.48 952L921.48 980L897.23 994L872.98 980L872.98 952zM872.98 980L897.23 994L897.23 1022L872.98 1036L848.73 1022L848.73 994zM921.48 -28L945.73 -14L945.73 14L921.48 28L897.23 14L897.23 -14zM945.73 14L969.98 28L969.98 56L945.73 70L921.48 56L921.48 28zM921.48 56L945.73 70L945.73 98L921.48 112L897.23 98L897.23 70zM945.73 98L969.98 112L969.98 140L945.73 154L921.48 140L921.48 112zM921.48 140L945.73 154L945.73 182L921.48 196L897.23 182L897.23 154zM945.73 182L969.98 196L969.98 224L945.73 238L921.48 224L921.48 196zM921.48 224L945.73 238L945.73 266L921.48 280L897.23 266L897.23 238zM945.73 266L969.98 280L969.98 308L945.73 322L921.48 308L921.48 280zM921.48 308L945.73 322L945.73 350L921.48 364L897.23 350L897.23 322zM945.73 350L969.98 364L969.98 392L945.73 406L921.48 392L921.48 364zM921.48 392L945.73 406L945.73 434L921.48 448L897.23 434L897.23 406zM945.73 434L969.98 448L969.98 476L945.73 490L921.48 476L921.48 448zM921.48 476L945.73 490L945.73 518L921.48 532L897.23 518L897.23 490zM945.73 518L969.98 532L969.98 560L945.73 574L921.48 560L921.48 532zM921.48 560L945.73 574L945.73 602L921.48 616L897.23 602L897.23 574zM945.73 602L969.98 616L969.98 644L945.73 658L921.48 644L921.48 616zM921.48 644L945.73 658L945.73 686L921.48 700L897.23 686L897.23 658zM945.73 686L969.98 700L969.98 728L945.73 742L921.48 728L921.48 700zM921.48 728L945.73 742L945.73 770L921.48 784L897.23 770L897.23 742zM945.73 770L969.98 784L969.98 812L945.73 826L921.48 812L921.48 784zM921.48 812L945.73 826L945.73 854L921.48 868L897.23 854L897.23 826zM945.73 854L969.98 868L969.98 896L945.73 910L921.48 896L921.48 868zM921.48 896L945.73 910L945.73 938L921.48 952L897.23 938L897.23 910zM945.73 938L969.98 952L969.98 980L945.73 994L921.48 980L921.48 952zM921.48 980L945.73 994L945.73 1022L921.48 1036L897.23 1022L897.23 994zM969.98 -28L994.23 -14L994.23 14L969.98 28L945.73 14L945.73 -14zM994.23 14L1018.47 28L1018.47 56L994.23 70L969.98 56L969.98 28zM969.98 56L994.23 70L994.23 98L969.98 112L945.73 98L945.73 70zM994.23 98L1018.47 112L1018.47 140L994.23 154L969.98 140L969.98 112zM969.98 140L994.23 154L994.23 182L969.98 196L945.73 182L945.73 154zM994.23 182L1018.47 196L1018.47 224L994.23 238L969.98 224L969.98 196zM969.98 224L994.23 238L994.23 266L969.98 280L945.73 266L945.73 238zM994.23 266L1018.47 280L1018.47 308L994.23 322L969.98 308L969.98 280zM969.98 308L994.23 322L994.23 350L969.98 364L945.73 350L945.73 322zM994.23 350L1018.47 364L1018.47 392L994.23 406L969.98 392L969.98 364zM969.98 392L994.23 406L994.23 434L969.98 448L945.73 434L945.73 406zM994.23 434L1018.47 448L1018.47 476L994.23 490L969.98 476L969.98 448zM969.98 476L994.23 490L994.23 518L969.98 532L945.73 518L945.73 490zM994.23 518L1018.47 532L1018.47 560L994.23 574L969.98 560L969.98 532zM969.98 560L994.23 574L994.23 602L969.98 616L945.73 602L945.73 574zM994.23 602L1018.47 616L1018.47 644L994.23 658L969.98 644L969.98 616zM969.98 644L994.23 658L994.23 686L969.98 700L945.73 686L945.73 658zM994.23 686L1018.47 700L1018.47 728L994.23 742L969.98 728L969.98 700zM969.98 728L994.23 742L994.23 770L969.98 784L945.73 770L945.73 742zM994.23 770L1018.47 784L1018.47 812L994.23 826L969.98 812L969.98 784zM969.98 812L994.23 826L994.23 854L969.98 868L945.73 854L945.73 826zM994.23 854L1018.47 868L1018.47 896L994.23 910L969.98 896L969.98 868zM969.98 896L994.23 910L994.23 938L969.98 952L945.73 938L945.73 910zM994.23 938L1018.47 952L1018.47 980L994.23 994L969.98 980L969.98 952zM969.98 980L994.23 994L994.23 1022L969.98 1036L945.73 1022L945.73 994zM1018.47 -28L1042.72 -14L1042.72 14L1018.47 28L994.23 14L994.23 -14zM1042.72 14L1066.97 28L1066.97 56L1042.72 70L1018.47 56L1018.47 28zM1018.47 56L1042.72 70L1042.72 98L1018.47 112L994.23 98L994.23 70zM1042.72 98L1066.97 112L1066.97 140L1042.72 154L1018.47 140L1018.47 112zM1018.47 140L1042.72 154L1042.72 182L1018.47 196L994.23 182L994.23 154zM1042.72 182L1066.97 196L1066.97 224L1042.72 238L1018.47 224L1018.47 196zM1018.47 224L1042.72 238L1042.72 266L1018.47 280L994.23 266L994.23 238zM1042.72 266L1066.97 280L1066.97 308L1042.72 322L1018.47 308L1018.47 280zM1018.47 308L1042.72 322L1042.72 350L1018.47 364L994.23 350L994.23 322zM1042.72 350L1066.97 364L1066.97 392L1042.72 406L1018.47 392L1018.47 364zM1018.47 392L1042.72 406L1042.72 434L1018.47 448L994.23 434L994.23 406zM1042.72 434L1066.97 448L1066.97 476L1042.72 490L1018.47 476L1018.47 448zM1018.47 476L1042.72 490L1042.72 518L1018.47 532L994.23 518L994.23 490zM1042.72 518L1066.97 532L1066.97 560L1042.72 574L1018.47 560L1018.47 532zM1018.47 560L1042.72 574L1042.72 602L1018.47 616L994.23 602L994.23 574zM1042.72 602L1066.97 616L1066.97 644L1042.72 658L1018.47 644L1018.47 616zM1018.47 644L1042.72 658L1042.72 686L1018.47 700L994.23 686L994.23 658zM1042.72 686L1066.97 700L1066.97 728L1042.72 742L1018.47 728L1018.47 700zM1018.47 728L1042.72 742L1042.72 770L1018.47 784L994.23 770L994.23 742zM1042.72 770L1066.97 784L1066.97 812L1042.72 826L1018.47 812L1018.47 784zM1018.47 812L1042.72 826L1042.72 854L1018.47 868L994.23 854L994.23 826zM1042.72 854L1066.97 868L1066.97 896L1042.72 910L1018.47 896L1018.47 868zM1018.47 896L1042.72 910L1042.72 938L1018.47 952L994.23 938L994.23 910zM1042.72 938L1066.97 952L1066.97 980L1042.72 994L1018.47 980L1018.47 952zM1018.47 980L1042.72 994L1042.72 1022L1018.47 1036L994.23 1022L994.23 994zM1066.97 -28L1091.22 -14L1091.22 14L1066.97 28L1042.72 14L1042.72 -14zM1091.22 14L1115.47 28L1115.47 56L1091.22 70L1066.97 56L1066.97 28zM1066.97 56L1091.22 70L1091.22 98L1066.97 112L1042.72 98L1042.72 70zM1091.22 98L1115.47 112L1115.47 140L1091.22 154L1066.97 140L1066.97 112zM1066.97 140L1091.22 154L1091.22 182L1066.97 196L1042.72 182L1042.72 154zM1091.22 182L1115.47 196L1115.47 224L1091.22 238L1066.97 224L1066.97 196zM1066.97 224L1091.22 238L1091.22 266L1066.97 280L1042.72 266L1042.72 238zM1091.22 266L1115.47 280L1115.47 308L1091.22 322L1066.97 308L1066.97 280zM1066.97 308L1091.22 322L1091.22 350L1066.97 364L1042.72 350L1042.72 322zM1091.22 350L1115.47 364L1115.47 392L1091.22 406L1066.97 392L1066.97 364zM1066.97 392L1091.22 406L1091.22 434L1066.97 448L1042.72 434L1042.72 406zM1091.22 434L1115.47 448L1115.47 476L1091.22 490L1066.97 476L1066.97 448zM1066.97 476L1091.22 490L1091.22 518L1066.97 532L1042.72 518L1042.72 490zM1091.22 518L1115.47 532L1115.47 560L1091.22 574L1066.97 560L1066.97 532zM1066.97 560L1091.22 574L1091.22 602L1066.97 616L1042.72 602L1042.72 574zM1091.22 602L1115.47 616L1115.47 644L1091.22 658L1066.97 644L1066.97 616zM1066.97 644L1091.22 658L1091.22 686L1066.97 700L1042.72 686L1042.72 658zM1091.22 686L1115.47 700L1115.47 728L1091.22 742L1066.97 728L1066.97 700zM1066.97 728L1091.22 742L1091.22 770L1066.97 784L1042.72 770L1042.72 742zM1091.22 770L1115.47 784L1115.47 812L1091.22 826L1066.97 812L1066.97 784zM1066.97 812L1091.22 826L1091.22 854L1066.97 868L1042.72 854L1042.72 826zM1091.22 854L1115.47 868L1115.47 896L1091.22 910L1066.97 896L1066.97 868zM1066.97 896L1091.22 910L1091.22 938L1066.97 952L1042.72 938L1042.72 910zM1091.22 938L1115.47 952L1115.47 980L1091.22 994L1066.97 980L1066.97 952zM1066.97 980L1091.22 994L1091.22 1022L1066.97 1036L1042.72 1022L1042.72 994zM1115.47 -28L1139.72 -14L1139.72 14L1115.47 28L1091.22 14L1091.22 -14zM1139.72 14L1163.97 28L1163.97 56L1139.72 70L1115.47 56L1115.47 28zM1115.47 56L1139.72 70L1139.72 98L1115.47 112L1091.22 98L1091.22 70zM1139.72 98L1163.97 112L1163.97 140L1139.72 154L1115.47 140L1115.47 112zM1115.47 140L1139.72 154L1139.72 182L1115.47 196L1091.22 182L1091.22 154zM1139.72 182L1163.97 196L1163.97 224L1139.72 238L1115.47 224L1115.47 196zM1115.47 224L1139.72 238L1139.72 266L1115.47 280L1091.22 266L1091.22 238zM1139.72 266L1163.97 280L1163.97 308L1139.72 322L1115.47 308L1115.47 280zM1115.47 308L1139.72 322L1139.72 350L1115.47 364L1091.22 350L1091.22 322zM1139.72 350L1163.97 364L1163.97 392L1139.72 406L1115.47 392L1115.47 364zM1115.47 392L1139.72 406L1139.72 434L1115.47 448L1091.22 434L1091.22 406zM1139.72 434L1163.97 448L1163.97 476L1139.72 490L1115.47 476L1115.47 448zM1115.47 476L1139.72 490L1139.72 518L1115.47 532L1091.22 518L1091.22 490zM1139.72 518L1163.97 532L1163.97 560L1139.72 574L1115.47 560L1115.47 532zM1115.47 560L1139.72 574L1139.72 602L1115.47 616L1091.22 602L1091.22 574zM1139.72 602L1163.97 616L1163.97 644L1139.72 658L1115.47 644L1115.47 616zM1115.47 644L1139.72 658L1139.72 686L1115.47 700L1091.22 686L1091.22 658zM1139.72 686L1163.97 700L1163.97 728L1139.72 742L1115.47 728L1115.47 700zM1115.47 728L1139.72 742L1139.72 770L1115.47 784L1091.22 770L1091.22 742zM1139.72 770L1163.97 784L1163.97 812L1139.72 826L1115.47 812L1115.47 784zM1115.47 812L1139.72 826L1139.72 854L1115.47 868L1091.22 854L1091.22 826zM1139.72 854L1163.97 868L1163.97 896L1139.72 910L1115.47 896L1115.47 868zM1115.47 896L1139.72 910L1139.72 938L1115.47 952L1091.22 938L1091.22 910zM1139.72 938L1163.97 952L1163.97 980L1139.72 994L1115.47 980L1115.47 952zM1115.47 980L1139.72 994L1139.72 1022L1115.47 1036L1091.22 1022L1091.22 994zM1163.97 -28L1188.22 -14L1188.22 14L1163.97 28L1139.72 14L1139.72 -14zM1188.22 14L1212.47 28L1212.47 56L1188.22 70L1163.97 56L1163.97 28zM1163.97 56L1188.22 70L1188.22 98L1163.97 112L1139.72 98L1139.72 70zM1188.22 98L1212.47 112L1212.47 140L1188.22 154L1163.97 140L1163.97 112zM1163.97 140L1188.22 154L1188.22 182L1163.97 196L1139.72 182L1139.72 154zM1188.22 182L1212.47 196L1212.47 224L1188.22 238L1163.97 224L1163.97 196zM1163.97 224L1188.22 238L1188.22 266L1163.97 280L1139.72 266L1139.72 238zM1188.22 266L1212.47 280L1212.47 308L1188.22 322L1163.97 308L1163.97 280zM1163.97 308L1188.22 322L1188.22 350L1163.97 364L1139.72 350L1139.72 322zM1188.22 350L1212.47 364L1212.47 392L1188.22 406L1163.97 392L1163.97 364zM1163.97 392L1188.22 406L1188.22 434L1163.97 448L1139.72 434L1139.72 406zM1188.22 434L1212.47 448L1212.47 476L1188.22 490L1163.97 476L1163.97 448zM1163.97 476L1188.22 490L1188.22 518L1163.97 532L1139.72 518L1139.72 490zM1188.22 518L1212.47 532L1212.47 560L1188.22 574L1163.97 560L1163.97 532zM1163.97 560L1188.22 574L1188.22 602L1163.97 616L1139.72 602L1139.72 574zM1188.22 602L1212.47 616L1212.47 644L1188.22 658L1163.97 644L1163.97 616zM1163.97 644L1188.22 658L1188.22 686L1163.97 700L1139.72 686L1139.72 658zM1188.22 686L1212.47 700L1212.47 728L1188.22 742L1163.97 728L1163.97 700zM1163.97 728L1188.22 742L1188.22 770L1163.97 784L1139.72 770L1139.72 742zM1188.22 770L1212.47 784L1212.47 812L1188.22 826L1163.97 812L1163.97 784zM1163.97 812L1188.22 826L1188.22 854L1163.97 868L1139.72 854L1139.72 826zM1188.22 854L1212.47 868L1212.47 896L1188.22 910L1163.97 896L1163.97 868zM1163.97 896L1188.22 910L1188.22 938L1163.97 952L1139.72 938L1139.72 910zM1188.22 938L1212.47 952L1212.47 980L1188.22 994L1163.97 980L1163.97 952zM1163.97 980L1188.22 994L1188.22 1022L1163.97 1036L1139.72 1022L1139.72 994zM1212.47 -28L1236.72 -14L1236.72 14L1212.47 28L1188.22 14L1188.22 -14zM1236.72 14L1260.97 28L1260.97 56L1236.72 70L1212.47 56L1212.47 28zM1212.47 56L1236.72 70L1236.72 98L1212.47 112L1188.22 98L1188.22 70zM1236.72 98L1260.97 112L1260.97 140L1236.72 154L1212.47 140L1212.47 112zM1212.47 140L1236.72 154L1236.72 182L1212.47 196L1188.22 182L1188.22 154zM1236.72 182L1260.97 196L1260.97 224L1236.72 238L1212.47 224L1212.47 196zM1212.47 224L1236.72 238L1236.72 266L1212.47 280L1188.22 266L1188.22 238zM1236.72 266L1260.97 280L1260.97 308L1236.72 322L1212.47 308L1212.47 280zM1212.47 308L1236.72 322L1236.72 350L1212.47 364L1188.22 350L1188.22 322zM1236.72 350L1260.97 364L1260.97 392L1236.72 406L1212.47 392L1212.47 364zM1212.47 392L1236.72 406L1236.72 434L1212.47 448L1188.22 434L1188.22 406zM1236.72 434L1260.97 448L1260.97 476L1236.72 490L1212.47 476L1212.47 448zM1212.47 476L1236.72 490L1236.72 518L1212.47 532L1188.22 518L1188.22 490zM1236.72 518L1260.97 532L1260.97 560L1236.72 574L1212.47 560L1212.47 532zM1212.47 560L1236.72 574L1236.72 602L1212.47 616L1188.22 602L1188.22 574zM1236.72 602L1260.97 616L1260.97 644L1236.72 658L1212.47 644L1212.47 616zM1212.47 644L1236.72 658L1236.72 686L1212.47 700L1188.22 686L1188.22 658zM1236.72 686L1260.97 700L1260.97 728L1236.72 742L1212.47 728L1212.47 700zM1212.47 728L1236.72 742L1236.72 770L1212.47 784L1188.22 770L1188.22 742zM1236.72 770L1260.97 784L1260.97 812L1236.72 826L1212.47 812L1212.47 784zM1212.47 812L1236.72 826L1236.72 854L1212.47 868L1188.22 854L1188.22 826zM1236.72 854L1260.97 868L1260.97 896L1236.72 910L1212.47 896L1212.47 868zM1212.47 896L1236.72 910L1236.72 938L1212.47 952L1188.22 938L1188.22 910zM1236.72 938L1260.97 952L1260.97 980L1236.72 994L1212.47 980L1212.47 952zM1212.47 980L1236.72 994L1236.72 1022L1212.47 1036L1188.22 1022L1188.22 994zM1260.97 -28L1285.22 -14L1285.22 14L1260.97 28L1236.72 14L1236.72 -14zM1285.22 14L1309.47 28L1309.47 56L1285.22 70L1260.97 56L1260.97 28zM1260.97 56L1285.22 70L1285.22 98L1260.97 112L1236.72 98L1236.72 70zM1285.22 98L1309.47 112L1309.47 140L1285.22 154L1260.97 140L1260.97 112zM1260.97 140L1285.22 154L1285.22 182L1260.97 196L1236.72 182L1236.72 154zM1285.22 182L1309.47 196L1309.47 224L1285.22 238L1260.97 224L1260.97 196zM1260.97 224L1285.22 238L1285.22 266L1260.97 280L1236.72 266L1236.72 238zM1285.22 266L1309.47 280L1309.47 308L1285.22 322L1260.97 308L1260.97 280zM1260.97 308L1285.22 322L1285.22 350L1260.97 364L1236.72 350L1236.72 322zM1285.22 350L1309.47 364L1309.47 392L1285.22 406L1260.97 392L1260.97 364zM1260.97 392L1285.22 406L1285.22 434L1260.97 448L1236.72 434L1236.72 406zM1285.22 434L1309.47 448L1309.47 476L1285.22 490L1260.97 476L1260.97 448zM1260.97 476L1285.22 490L1285.22 518L1260.97 532L1236.72 518L1236.72 490zM1285.22 518L1309.47 532L1309.47 560L1285.22 574L1260.97 560L1260.97 532zM1260.97 560L1285.22 574L1285.22 602L1260.97 616L1236.72 602L1236.72 574zM1285.22 602L1309.47 616L1309.47 644L1285.22 658L1260.97 644L1260.97 616zM1260.97 644L1285.22 658L1285.22 686L1260.97 700L1236.72 686L1236.72 658zM1285.22 686L1309.47 700L1309.47 728L1285.22 742L1260.97 728L1260.97 700zM1260.97 728L1285.22 742L1285.22 770L1260.97 784L1236.72 770L1236.72 742zM1285.22 770L1309.47 784L1309.47 812L1285.22 826L1260.97 812L1260.97 784zM1260.97 812L1285.22 826L1285.22 854L1260.97 868L1236.72 854L1236.72 826zM1285.22 854L1309.47 868L1309.47 896L1285.22 910L1260.97 896L1260.97 868zM1260.97 896L1285.22 910L1285.22 938L1260.97 952L1236.72 938L1236.72 910zM1285.22 938L1309.47 952L1309.47 980L1285.22 994L1260.97 980L1260.97 952zM1260.97 980L1285.22 994L1285.22 1022L1260.97 1036L1236.72 1022L1236.72 994zM1309.47 -28L1333.72 -14L1333.72 14L1309.47 28L1285.22 14L1285.22 -14zM1333.72 14L1357.97 28L1357.97 56L1333.72 70L1309.47 56L1309.47 28zM1309.47 56L1333.72 70L1333.72 98L1309.47 112L1285.22 98L1285.22 70zM1333.72 98L1357.97 112L1357.97 140L1333.72 154L1309.47 140L1309.47 112zM1309.47 140L1333.72 154L1333.72 182L1309.47 196L1285.22 182L1285.22 154zM1333.72 182L1357.97 196L1357.97 224L1333.72 238L1309.47 224L1309.47 196zM1309.47 224L1333.72 238L1333.72 266L1309.47 280L1285.22 266L1285.22 238zM1333.72 266L1357.97 280L1357.97 308L1333.72 322L1309.47 308L1309.47 280zM1309.47 308L1333.72 322L1333.72 350L1309.47 364L1285.22 350L1285.22 322zM1333.72 350L1357.97 364L1357.97 392L1333.72 406L1309.47 392L1309.47 364zM1309.47 392L1333.72 406L1333.72 434L1309.47 448L1285.22 434L1285.22 406zM1333.72 434L1357.97 448L1357.97 476L1333.72 490L1309.47 476L1309.47 448zM1309.47 476L1333.72 490L1333.72 518L1309.47 532L1285.22 518L1285.22 490zM1333.72 518L1357.97 532L1357.97 560L1333.72 574L1309.47 560L1309.47 532zM1309.47 560L1333.72 574L1333.72 602L1309.47 616L1285.22 602L1285.22 574zM1333.72 602L1357.97 616L1357.97 644L1333.72 658L1309.47 644L1309.47 616zM1309.47 644L1333.72 658L1333.72 686L1309.47 700L1285.22 686L1285.22 658zM1333.72 686L1357.97 700L1357.97 728L1333.72 742L1309.47 728L1309.47 700zM1309.47 728L1333.72 742L1333.72 770L1309.47 784L1285.22 770L1285.22 742zM1333.72 770L1357.97 784L1357.97 812L1333.72 826L1309.47 812L1309.47 784zM1309.47 812L1333.72 826L1333.72 854L1309.47 868L1285.22 854L1285.22 826zM1333.72 854L1357.97 868L1357.97 896L1333.72 910L1309.47 896L1309.47 868zM1309.47 896L1333.72 910L1333.72 938L1309.47 952L1285.22 938L1285.22 910zM1333.72 938L1357.97 952L1357.97 980L1333.72 994L1309.47 980L1309.47 952zM1309.47 980L1333.72 994L1333.72 1022L1309.47 1036L1285.22 1022L1285.22 994zM1357.97 -28L1382.22 -14L1382.22 14L1357.97 28L1333.72 14L1333.72 -14zM1382.22 14L1406.47 28L1406.47 56L1382.22 70L1357.97 56L1357.97 28zM1357.97 56L1382.22 70L1382.22 98L1357.97 112L1333.72 98L1333.72 70zM1382.22 98L1406.47 112L1406.47 140L1382.22 154L1357.97 140L1357.97 112zM1357.97 140L1382.22 154L1382.22 182L1357.97 196L1333.72 182L1333.72 154zM1382.22 182L1406.47 196L1406.47 224L1382.22 238L1357.97 224L1357.97 196zM1357.97 224L1382.22 238L1382.22 266L1357.97 280L1333.72 266L1333.72 238zM1382.22 266L1406.47 280L1406.47 308L1382.22 322L1357.97 308L1357.97 280zM1357.97 308L1382.22 322L1382.22 350L1357.97 364L1333.72 350L1333.72 322zM1382.22 350L1406.47 364L1406.47 392L1382.22 406L1357.97 392L1357.97 364zM1357.97 392L1382.22 406L1382.22 434L1357.97 448L1333.72 434L1333.72 406zM1382.22 434L1406.47 448L1406.47 476L1382.22 490L1357.97 476L1357.97 448zM1357.97 476L1382.22 490L1382.22 518L1357.97 532L1333.72 518L1333.72 490zM1382.22 518L1406.47 532L1406.47 560L1382.22 574L1357.97 560L1357.97 532zM1357.97 560L1382.22 574L1382.22 602L1357.97 616L1333.72 602L1333.72 574zM1382.22 602L1406.47 616L1406.47 644L1382.22 658L1357.97 644L1357.97 616zM1357.97 644L1382.22 658L1382.22 686L1357.97 700L1333.72 686L1333.72 658zM1382.22 686L1406.47 700L1406.47 728L1382.22 742L1357.97 728L1357.97 700zM1357.97 728L1382.22 742L1382.22 770L1357.97 784L1333.72 770L1333.72 742zM1382.22 770L1406.47 784L1406.47 812L1382.22 826L1357.97 812L1357.97 784zM1357.97 812L1382.22 826L1382.22 854L1357.97 868L1333.72 854L1333.72 826zM1382.22 854L1406.47 868L1406.47 896L1382.22 910L1357.97 896L1357.97 868zM1357.97 896L1382.22 910L1382.22 938L1357.97 952L1333.72 938L1333.72 910zM1382.22 938L1406.47 952L1406.47 980L1382.22 994L1357.97 980L1357.97 952zM1357.97 980L1382.22 994L1382.22 1022L1357.97 1036L1333.72 1022L1333.72 994zM1406.47 -28L1430.71 -14L1430.71 14L1406.47 28L1382.22 14L1382.22 -14zM1430.71 14L1454.96 28L1454.96 56L1430.71 70L1406.47 56L1406.47 28zM1406.47 56L1430.71 70L1430.71 98L1406.47 112L1382.22 98L1382.22 70zM1430.71 98L1454.96 112L1454.96 140L1430.71 154L1406.47 140L1406.47 112zM1406.47 140L1430.71 154L1430.71 182L1406.47 196L1382.22 182L1382.22 154zM1430.71 182L1454.96 196L1454.96 224L1430.71 238L1406.47 224L1406.47 196zM1406.47 224L1430.71 238L1430.71 266L1406.47 280L1382.22 266L1382.22 238zM1430.71 266L1454.96 280L1454.96 308L1430.71 322L1406.47 308L1406.47 280zM1406.47 308L1430.71 322L1430.71 350L1406.47 364L1382.22 350L1382.22 322zM1430.71 350L1454.96 364L1454.96 392L1430.71 406L1406.47 392L1406.47 364zM1406.47 392L1430.71 406L1430.71 434L1406.47 448L1382.22 434L1382.22 406zM1430.71 434L1454.96 448L1454.96 476L1430.71 490L1406.47 476L1406.47 448zM1406.47 476L1430.71 490L1430.71 518L1406.47 532L1382.22 518L1382.22 490zM1430.71 518L1454.96 532L1454.96 560L1430.71 574L1406.47 560L1406.47 532zM1406.47 560L1430.71 574L1430.71 602L1406.47 616L1382.22 602L1382.22 574zM1430.71 602L1454.96 616L1454.96 644L1430.71 658L1406.47 644L1406.47 616zM1406.47 644L1430.71 658L1430.71 686L1406.47 700L1382.22 686L1382.22 658zM1430.71 686L1454.96 700L1454.96 728L1430.71 742L1406.47 728L1406.47 700zM1406.47 728L1430.71 742L1430.71 770L1406.47 784L1382.22 770L1382.22 742zM1430.71 770L1454.96 784L1454.96 812L1430.71 826L1406.47 812L1406.47 784zM1406.47 812L1430.71 826L1430.71 854L1406.47 868L1382.22 854L1382.22 826zM1430.71 854L1454.96 868L1454.96 896L1430.71 910L1406.47 896L1406.47 868zM1406.47 896L1430.71 910L1430.71 938L1406.47 952L1382.22 938L1382.22 910zM1430.71 938L1454.96 952L1454.96 980L1430.71 994L1406.47 980L1406.47 952zM1406.47 980L1430.71 994L1430.71 1022L1406.47 1036L1382.22 1022L1382.22 994zM1454.96 -28L1479.21 -14L1479.21 14L1454.96 28L1430.71 14L1430.71 -14zM1479.21 14L1503.46 28L1503.46 56L1479.21 70L1454.96 56L1454.96 28zM1454.96 56L1479.21 70L1479.21 98L1454.96 112L1430.71 98L1430.71 70zM1479.21 98L1503.46 112L1503.46 140L1479.21 154L1454.96 140L1454.96 112zM1454.96 140L1479.21 154L1479.21 182L1454.96 196L1430.71 182L1430.71 154zM1479.21 182L1503.46 196L1503.46 224L1479.21 238L1454.96 224L1454.96 196zM1454.96 224L1479.21 238L1479.21 266L1454.96 280L1430.71 266L1430.71 238zM1479.21 266L1503.46 280L1503.46 308L1479.21 322L1454.96 308L1454.96 280zM1454.96 308L1479.21 322L1479.21 350L1454.96 364L1430.71 350L1430.71 322zM1479.21 350L1503.46 364L1503.46 392L1479.21 406L1454.96 392L1454.96 364zM1454.96 392L1479.21 406L1479.21 434L1454.96 448L1430.71 434L1430.71 406zM1479.21 434L1503.46 448L1503.46 476L1479.21 490L1454.96 476L1454.96 448zM1454.96 476L1479.21 490L1479.21 518L1454.96 532L1430.71 518L1430.71 490zM1479.21 518L1503.46 532L1503.46 560L1479.21 574L1454.96 560L1454.96 532zM1454.96 560L1479.21 574L1479.21 602L1454.96 616L1430.71 602L1430.71 574zM1479.21 602L1503.46 616L1503.46 644L1479.21 658L1454.96 644L1454.96 616zM1454.96 644L1479.21 658L1479.21 686L1454.96 700L1430.71 686L1430.71 658zM1479.21 686L1503.46 700L1503.46 728L1479.21 742L1454.96 728L1454.96 700zM1454.96 728L1479.21 742L1479.21 770L1454.96 784L1430.71 770L1430.71 742zM1479.21 770L1503.46 784L1503.46 812L1479.21 826L1454.96 812L1454.96 784zM1454.96 812L1479.21 826L1479.21 854L1454.96 868L1430.71 854L1430.71 826zM1479.21 854L1503.46 868L1503.46 896L1479.21 910L1454.96 896L1454.96 868zM1454.96 896L1479.21 910L1479.21 938L1454.96 952L1430.71 938L1430.71 910zM1479.21 938L1503.46 952L1503.46 980L1479.21 994L1454.96 980L1454.96 952zM1454.96 980L1479.21 994L1479.21 1022L1454.96 1036L1430.71 1022L1430.71 994zM1503.46 -28L1527.71 -14L1527.71 14L1503.46 28L1479.21 14L1479.21 -14zM1527.71 14L1551.96 28L1551.96 56L1527.71 70L1503.46 56L1503.46 28zM1503.46 56L1527.71 70L1527.71 98L1503.46 112L1479.21 98L1479.21 70zM1527.71 98L1551.96 112L1551.96 140L1527.71 154L1503.46 140L1503.46 112zM1503.46 140L1527.71 154L1527.71 182L1503.46 196L1479.21 182L1479.21 154zM1527.71 182L1551.96 196L1551.96 224L1527.71 238L1503.46 224L1503.46 196zM1503.46 224L1527.71 238L1527.71 266L1503.46 280L1479.21 266L1479.21 238zM1527.71 266L1551.96 280L1551.96 308L1527.71 322L1503.46 308L1503.46 280zM1503.46 308L1527.71 322L1527.71 350L1503.46 364L1479.21 350L1479.21 322zM1527.71 350L1551.96 364L1551.96 392L1527.71 406L1503.46 392L1503.46 364zM1503.46 392L1527.71 406L1527.71 434L1503.46 448L1479.21 434L1479.21 406zM1527.71 434L1551.96 448L1551.96 476L1527.71 490L1503.46 476L1503.46 448zM1503.46 476L1527.71 490L1527.71 518L1503.46 532L1479.21 518L1479.21 490zM1527.71 518L1551.96 532L1551.96 560L1527.71 574L1503.46 560L1503.46 532zM1503.46 560L1527.71 574L1527.71 602L1503.46 616L1479.21 602L1479.21 574zM1527.71 602L1551.96 616L1551.96 644L1527.71 658L1503.46 644L1503.46 616zM1503.46 644L1527.71 658L1527.71 686L1503.46 700L1479.21 686L1479.21 658zM1527.71 686L1551.96 700L1551.96 728L1527.71 742L1503.46 728L1503.46 700zM1503.46 728L1527.71 742L1527.71 770L1503.46 784L1479.21 770L1479.21 742zM1527.71 770L1551.96 784L1551.96 812L1527.71 826L1503.46 812L1503.46 784zM1503.46 812L1527.71 826L1527.71 854L1503.46 868L1479.21 854L1479.21 826zM1527.71 854L1551.96 868L1551.96 896L1527.71 910L1503.46 896L1503.46 868zM1503.46 896L1527.71 910L1527.71 938L1503.46 952L1479.21 938L1479.21 910zM1527.71 938L1551.96 952L1551.96 980L1527.71 994L1503.46 980L1503.46 952zM1503.46 980L1527.71 994L1527.71 1022L1503.46 1036L1479.21 1022L1479.21 994zM1551.96 -28L1576.21 -14L1576.21 14L1551.96 28L1527.71 14L1527.71 -14zM1576.21 14L1600.46 28L1600.46 56L1576.21 70L1551.96 56L1551.96 28zM1551.96 56L1576.21 70L1576.21 98L1551.96 112L1527.71 98L1527.71 70zM1576.21 98L1600.46 112L1600.46 140L1576.21 154L1551.96 140L1551.96 112zM1551.96 140L1576.21 154L1576.21 182L1551.96 196L1527.71 182L1527.71 154zM1576.21 182L1600.46 196L1600.46 224L1576.21 238L1551.96 224L1551.96 196zM1551.96 224L1576.21 238L1576.21 266L1551.96 280L1527.71 266L1527.71 238zM1576.21 266L1600.46 280L1600.46 308L1576.21 322L1551.96 308L1551.96 280zM1551.96 308L1576.21 322L1576.21 350L1551.96 364L1527.71 350L1527.71 322zM1576.21 350L1600.46 364L1600.46 392L1576.21 406L1551.96 392L1551.96 364zM1551.96 392L1576.21 406L1576.21 434L1551.96 448L1527.71 434L1527.71 406zM1576.21 434L1600.46 448L1600.46 476L1576.21 490L1551.96 476L1551.96 448zM1551.96 476L1576.21 490L1576.21 518L1551.96 532L1527.71 518L1527.71 490zM1576.21 518L1600.46 532L1600.46 560L1576.21 574L1551.96 560L1551.96 532zM1551.96 560L1576.21 574L1576.21 602L1551.96 616L1527.71 602L1527.71 574zM1576.21 602L1600.46 616L1600.46 644L1576.21 658L1551.96 644L1551.96 616zM1551.96 644L1576.21 658L1576.21 686L1551.96 700L1527.71 686L1527.71 658zM1576.21 686L1600.46 700L1600.46 728L1576.21 742L1551.96 728L1551.96 700zM1551.96 728L1576.21 742L1576.21 770L1551.96 784L1527.71 770L1527.71 742zM1576.21 770L1600.46 784L1600.46 812L1576.21 826L1551.96 812L1551.96 784zM1551.96 812L1576.21 826L1576.21 854L1551.96 868L1527.71 854L1527.71 826zM1576.21 854L1600.46 868L1600.46 896L1576.21 910L1551.96 896L1551.96 868zM1551.96 896L1576.21 910L1576.21 938L1551.96 952L1527.71 938L1527.71 910zM1576.21 938L1600.46 952L1600.46 980L1576.21 994L1551.96 980L1551.96 952zM1551.96 980L1576.21 994L1576.21 1022L1551.96 1036L1527.71 1022L1527.71 994zM1600.46 -28L1624.71 -14L1624.71 14L1600.46 28L1576.21 14L1576.21 -14zM1624.71 14L1648.96 28L1648.96 56L1624.71 70L1600.46 56L1600.46 28zM1600.46 56L1624.71 70L1624.71 98L1600.46 112L1576.21 98L1576.21 70zM1624.71 98L1648.96 112L1648.96 140L1624.71 154L1600.46 140L1600.46 112zM1600.46 140L1624.71 154L1624.71 182L1600.46 196L1576.21 182L1576.21 154zM1624.71 182L1648.96 196L1648.96 224L1624.71 238L1600.46 224L1600.46 196zM1600.46 224L1624.71 238L1624.71 266L1600.46 280L1576.21 266L1576.21 238zM1624.71 266L1648.96 280L1648.96 308L1624.71 322L1600.46 308L1600.46 280zM1600.46 308L1624.71 322L1624.71 350L1600.46 364L1576.21 350L1576.21 322zM1624.71 350L1648.96 364L1648.96 392L1624.71 406L1600.46 392L1600.46 364zM1600.46 392L1624.71 406L1624.71 434L1600.46 448L1576.21 434L1576.21 406zM1624.71 434L1648.96 448L1648.96 476L1624.71 490L1600.46 476L1600.46 448zM1600.46 476L1624.71 490L1624.71 518L1600.46 532L1576.21 518L1576.21 490zM1624.71 518L1648.96 532L1648.96 560L1624.71 574L1600.46 560L1600.46 532zM1600.46 560L1624.71 574L1624.71 602L1600.46 616L1576.21 602L1576.21 574zM1624.71 602L1648.96 616L1648.96 644L1624.71 658L1600.46 644L1600.46 616zM1600.46 644L1624.71 658L1624.71 686L1600.46 700L1576.21 686L1576.21 658zM1624.71 686L1648.96 700L1648.96 728L1624.71 742L1600.46 728L1600.46 700zM1600.46 728L1624.71 742L1624.71 770L1600.46 784L1576.21 770L1576.21 742zM1624.71 770L1648.96 784L1648.96 812L1624.71 826L1600.46 812L1600.46 784zM1600.46 812L1624.71 826L1624.71 854L1600.46 868L1576.21 854L1576.21 826zM1624.71 854L1648.96 868L1648.96 896L1624.71 910L1600.46 896L1600.46 868zM1600.46 896L1624.71 910L1624.71 938L1600.46 952L1576.21 938L1576.21 910zM1624.71 938L1648.96 952L1648.96 980L1624.71 994L1600.46 980L1600.46 952zM1600.46 980L1624.71 994L1624.71 1022L1600.46 1036L1576.21 1022L1576.21 994zM1648.96 -28L1673.21 -14L1673.21 14L1648.96 28L1624.71 14L1624.71 -14zM1673.21 14L1697.46 28L1697.46 56L1673.21 70L1648.96 56L1648.96 28zM1648.96 56L1673.21 70L1673.21 98L1648.96 112L1624.71 98L1624.71 70zM1673.21 98L1697.46 112L1697.46 140L1673.21 154L1648.96 140L1648.96 112zM1648.96 140L1673.21 154L1673.21 182L1648.96 196L1624.71 182L1624.71 154zM1673.21 182L1697.46 196L1697.46 224L1673.21 238L1648.96 224L1648.96 196zM1648.96 224L1673.21 238L1673.21 266L1648.96 280L1624.71 266L1624.71 238zM1673.21 266L1697.46 280L1697.46 308L1673.21 322L1648.96 308L1648.96 280zM1648.96 308L1673.21 322L1673.21 350L1648.96 364L1624.71 350L1624.71 322zM1673.21 350L1697.46 364L1697.46 392L1673.21 406L1648.96 392L1648.96 364zM1648.96 392L1673.21 406L1673.21 434L1648.96 448L1624.71 434L1624.71 406zM1673.21 434L1697.46 448L1697.46 476L1673.21 490L1648.96 476L1648.96 448zM1648.96 476L1673.21 490L1673.21 518L1648.96 532L1624.71 518L1624.71 490zM1673.21 518L1697.46 532L1697.46 560L1673.21 574L1648.96 560L1648.96 532zM1648.96 560L1673.21 574L1673.21 602L1648.96 616L1624.71 602L1624.71 574zM1673.21 602L1697.46 616L1697.46 644L1673.21 658L1648.96 644L1648.96 616zM1648.96 644L1673.21 658L1673.21 686L1648.96 700L1624.71 686L1624.71 658zM1673.21 686L1697.46 700L1697.46 728L1673.21 742L1648.96 728L1648.96 700zM1648.96 728L1673.21 742L1673.21 770L1648.96 784L1624.71 770L1624.71 742zM1673.21 770L1697.46 784L1697.46 812L1673.21 826L1648.96 812L1648.96 784zM1648.96 812L1673.21 826L1673.21 854L1648.96 868L1624.71 854L1624.71 826zM1673.21 854L1697.46 868L1697.46 896L1673.21 910L1648.96 896L1648.96 868zM1648.96 896L1673.21 910L1673.21 938L1648.96 952L1624.71 938L1624.71 910zM1673.21 938L1697.46 952L1697.46 980L1673.21 994L1648.96 980L1648.96 952zM1648.96 980L1673.21 994L1673.21 1022L1648.96 1036L1624.71 1022L1624.71 994zM1697.46 -28L1721.71 -14L1721.71 14L1697.46 28L1673.21 14L1673.21 -14zM1721.71 14L1745.96 28L1745.96 56L1721.71 70L1697.46 56L1697.46 28zM1697.46 56L1721.71 70L1721.71 98L1697.46 112L1673.21 98L1673.21 70zM1721.71 98L1745.96 112L1745.96 140L1721.71 154L1697.46 140L1697.46 112zM1697.46 140L1721.71 154L1721.71 182L1697.46 196L1673.21 182L1673.21 154zM1721.71 182L1745.96 196L1745.96 224L1721.71 238L1697.46 224L1697.46 196zM1697.46 224L1721.71 238L1721.71 266L1697.46 280L1673.21 266L1673.21 238zM1721.71 266L1745.96 280L1745.96 308L1721.71 322L1697.46 308L1697.46 280zM1697.46 308L1721.71 322L1721.71 350L1697.46 364L1673.21 350L1673.21 322zM1721.71 350L1745.96 364L1745.96 392L1721.71 406L1697.46 392L1697.46 364zM1697.46 392L1721.71 406L1721.71 434L1697.46 448L1673.21 434L1673.21 406zM1721.71 434L1745.96 448L1745.96 476L1721.71 490L1697.46 476L1697.46 448zM1697.46 476L1721.71 490L1721.71 518L1697.46 532L1673.21 518L1673.21 490zM1721.71 518L1745.96 532L1745.96 560L1721.71 574L1697.46 560L1697.46 532zM1697.46 560L1721.71 574L1721.71 602L1697.46 616L1673.21 602L1673.21 574zM1721.71 602L1745.96 616L1745.96 644L1721.71 658L1697.46 644L1697.46 616zM1697.46 644L1721.71 658L1721.71 686L1697.46 700L1673.21 686L1673.21 658zM1721.71 686L1745.96 700L1745.96 728L1721.71 742L1697.46 728L1697.46 700zM1697.46 728L1721.71 742L1721.71 770L1697.46 784L1673.21 770L1673.21 742zM1721.71 770L1745.96 784L1745.96 812L1721.71 826L1697.46 812L1697.46 784zM1697.46 812L1721.71 826L1721.71 854L1697.46 868L1673.21 854L1673.21 826zM1721.71 854L1745.96 868L1745.96 896L1721.71 910L1697.46 896L1697.46 868zM1697.46 896L1721.71 910L1721.71 938L1697.46 952L1673.21 938L1673.21 910zM1721.71 938L1745.96 952L1745.96 980L1721.71 994L1697.46 980L1697.46 952zM1697.46 980L1721.71 994L1721.71 1022L1697.46 1036L1673.21 1022L1673.21 994zM1745.96 -28L1770.21 -14L1770.21 14L1745.96 28L1721.71 14L1721.71 -14zM1770.21 14L1794.46 28L1794.46 56L1770.21 70L1745.96 56L1745.96 28zM1745.96 56L1770.21 70L1770.21 98L1745.96 112L1721.71 98L1721.71 70zM1770.21 98L1794.46 112L1794.46 140L1770.21 154L1745.96 140L1745.96 112zM1745.96 140L1770.21 154L1770.21 182L1745.96 196L1721.71 182L1721.71 154zM1770.21 182L1794.46 196L1794.46 224L1770.21 238L1745.96 224L1745.96 196zM1745.96 224L1770.21 238L1770.21 266L1745.96 280L1721.71 266L1721.71 238zM1770.21 266L1794.46 280L1794.46 308L1770.21 322L1745.96 308L1745.96 280zM1745.96 308L1770.21 322L1770.21 350L1745.96 364L1721.71 350L1721.71 322zM1770.21 350L1794.46 364L1794.46 392L1770.21 406L1745.96 392L1745.96 364zM1745.96 392L1770.21 406L1770.21 434L1745.96 448L1721.71 434L1721.71 406zM1770.21 434L1794.46 448L1794.46 476L1770.21 490L1745.96 476L1745.96 448zM1745.96 476L1770.21 490L1770.21 518L1745.96 532L1721.71 518L1721.71 490zM1770.21 518L1794.46 532L1794.46 560L1770.21 574L1745.96 560L1745.96 532zM1745.96 560L1770.21 574L1770.21 602L1745.96 616L1721.71 602L1721.71 574zM1770.21 602L1794.46 616L1794.46 644L1770.21 658L1745.96 644L1745.96 616zM1745.96 644L1770.21 658L1770.21 686L1745.96 700L1721.71 686L1721.71 658zM1770.21 686L1794.46 700L1794.46 728L1770.21 742L1745.96 728L1745.96 700zM1745.96 728L1770.21 742L1770.21 770L1745.96 784L1721.71 770L1721.71 742zM1770.21 770L1794.46 784L1794.46 812L1770.21 826L1745.96 812L1745.96 784zM1745.96 812L1770.21 826L1770.21 854L1745.96 868L1721.71 854L1721.71 826zM1770.21 854L1794.46 868L1794.46 896L1770.21 910L1745.96 896L1745.96 868zM1745.96 896L1770.21 910L1770.21 938L1745.96 952L1721.71 938L1721.71 910zM1770.21 938L1794.46 952L1794.46 980L1770.21 994L1745.96 980L1745.96 952zM1745.96 980L1770.21 994L1770.21 1022L1745.96 1036L1721.71 1022L1721.71 994zM1794.46 -28L1818.7 -14L1818.7 14L1794.46 28L1770.21 14L1770.21 -14zM1818.7 14L1842.95 28L1842.95 56L1818.7 70L1794.46 56L1794.46 28zM1794.46 56L1818.7 70L1818.7 98L1794.46 112L1770.21 98L1770.21 70zM1818.7 98L1842.95 112L1842.95 140L1818.7 154L1794.46 140L1794.46 112zM1794.46 140L1818.7 154L1818.7 182L1794.46 196L1770.21 182L1770.21 154zM1818.7 182L1842.95 196L1842.95 224L1818.7 238L1794.46 224L1794.46 196zM1794.46 224L1818.7 238L1818.7 266L1794.46 280L1770.21 266L1770.21 238zM1818.7 266L1842.95 280L1842.95 308L1818.7 322L1794.46 308L1794.46 280zM1794.46 308L1818.7 322L1818.7 350L1794.46 364L1770.21 350L1770.21 322zM1818.7 350L1842.95 364L1842.95 392L1818.7 406L1794.46 392L1794.46 364zM1794.46 392L1818.7 406L1818.7 434L1794.46 448L1770.21 434L1770.21 406zM1818.7 434L1842.95 448L1842.95 476L1818.7 490L1794.46 476L1794.46 448zM1794.46 476L1818.7 490L1818.7 518L1794.46 532L1770.21 518L1770.21 490zM1818.7 518L1842.95 532L1842.95 560L1818.7 574L1794.46 560L1794.46 532zM1794.46 560L1818.7 574L1818.7 602L1794.46 616L1770.21 602L1770.21 574zM1818.7 602L1842.95 616L1842.95 644L1818.7 658L1794.46 644L1794.46 616zM1794.46 644L1818.7 658L1818.7 686L1794.46 700L1770.21 686L1770.21 658zM1818.7 686L1842.95 700L1842.95 728L1818.7 742L1794.46 728L1794.46 700zM1794.46 728L1818.7 742L1818.7 770L1794.46 784L1770.21 770L1770.21 742zM1818.7 770L1842.95 784L1842.95 812L1818.7 826L1794.46 812L1794.46 784zM1794.46 812L1818.7 826L1818.7 854L1794.46 868L1770.21 854L1770.21 826zM1818.7 854L1842.95 868L1842.95 896L1818.7 910L1794.46 896L1794.46 868zM1794.46 896L1818.7 910L1818.7 938L1794.46 952L1770.21 938L1770.21 910zM1818.7 938L1842.95 952L1842.95 980L1818.7 994L1794.46 980L1794.46 952zM1794.46 980L1818.7 994L1818.7 1022L1794.46 1036L1770.21 1022L1770.21 994zM1842.95 -28L1867.2 -14L1867.2 14L1842.95 28L1818.71 14L1818.71 -14zM1867.2 14L1891.45 28L1891.45 56L1867.2 70L1842.95 56L1842.95 28zM1842.95 56L1867.2 70L1867.2 98L1842.95 112L1818.71 98L1818.71 70zM1867.2 98L1891.45 112L1891.45 140L1867.2 154L1842.95 140L1842.95 112zM1842.95 140L1867.2 154L1867.2 182L1842.95 196L1818.71 182L1818.71 154zM1867.2 182L1891.45 196L1891.45 224L1867.2 238L1842.95 224L1842.95 196zM1842.95 224L1867.2 238L1867.2 266L1842.95 280L1818.71 266L1818.71 238zM1867.2 266L1891.45 280L1891.45 308L1867.2 322L1842.95 308L1842.95 280zM1842.95 308L1867.2 322L1867.2 350L1842.95 364L1818.71 350L1818.71 322zM1867.2 350L1891.45 364L1891.45 392L1867.2 406L1842.95 392L1842.95 364zM1842.95 392L1867.2 406L1867.2 434L1842.95 448L1818.71 434L1818.71 406zM1867.2 434L1891.45 448L1891.45 476L1867.2 490L1842.95 476L1842.95 448zM1842.95 476L1867.2 490L1867.2 518L1842.95 532L1818.71 518L1818.71 490zM1867.2 518L1891.45 532L1891.45 560L1867.2 574L1842.95 560L1842.95 532zM1842.95 560L1867.2 574L1867.2 602L1842.95 616L1818.71 602L1818.71 574zM1867.2 602L1891.45 616L1891.45 644L1867.2 658L1842.95 644L1842.95 616zM1842.95 644L1867.2 658L1867.2 686L1842.95 700L1818.71 686L1818.71 658zM1867.2 686L1891.45 700L1891.45 728L1867.2 742L1842.95 728L1842.95 700zM1842.95 728L1867.2 742L1867.2 770L1842.95 784L1818.71 770L1818.71 742zM1867.2 770L1891.45 784L1891.45 812L1867.2 826L1842.95 812L1842.95 784zM1842.95 812L1867.2 826L1867.2 854L1842.95 868L1818.71 854L1818.71 826zM1867.2 854L1891.45 868L1891.45 896L1867.2 910L1842.95 896L1842.95 868zM1842.95 896L1867.2 910L1867.2 938L1842.95 952L1818.71 938L1818.71 910zM1867.2 938L1891.45 952L1891.45 980L1867.2 994L1842.95 980L1842.95 952zM1842.95 980L1867.2 994L1867.2 1022L1842.95 1036L1818.71 1022L1818.71 994zM1891.45 -28L1915.7 -14L1915.7 14L1891.45 28L1867.2 14L1867.2 -14zM1915.7 14L1939.95 28L1939.95 56L1915.7 70L1891.45 56L1891.45 28zM1891.45 56L1915.7 70L1915.7 98L1891.45 112L1867.2 98L1867.2 70zM1915.7 98L1939.95 112L1939.95 140L1915.7 154L1891.45 140L1891.45 112zM1891.45 140L1915.7 154L1915.7 182L1891.45 196L1867.2 182L1867.2 154zM1915.7 182L1939.95 196L1939.95 224L1915.7 238L1891.45 224L1891.45 196zM1891.45 224L1915.7 238L1915.7 266L1891.45 280L1867.2 266L1867.2 238zM1915.7 266L1939.95 280L1939.95 308L1915.7 322L1891.45 308L1891.45 280zM1891.45 308L1915.7 322L1915.7 350L1891.45 364L1867.2 350L1867.2 322zM1915.7 350L1939.95 364L1939.95 392L1915.7 406L1891.45 392L1891.45 364zM1891.45 392L1915.7 406L1915.7 434L1891.45 448L1867.2 434L1867.2 406zM1915.7 434L1939.95 448L1939.95 476L1915.7 490L1891.45 476L1891.45 448zM1891.45 476L1915.7 490L1915.7 518L1891.45 532L1867.2 518L1867.2 490zM1915.7 518L1939.95 532L1939.95 560L1915.7 574L1891.45 560L1891.45 532zM1891.45 560L1915.7 574L1915.7 602L1891.45 616L1867.2 602L1867.2 574zM1915.7 602L1939.95 616L1939.95 644L1915.7 658L1891.45 644L1891.45 616zM1891.45 644L1915.7 658L1915.7 686L1891.45 700L1867.2 686L1867.2 658zM1915.7 686L1939.95 700L1939.95 728L1915.7 742L1891.45 728L1891.45 700zM1891.45 728L1915.7 742L1915.7 770L1891.45 784L1867.2 770L1867.2 742zM1915.7 770L1939.95 784L1939.95 812L1915.7 826L1891.45 812L1891.45 784zM1891.45 812L1915.7 826L1915.7 854L1891.45 868L1867.2 854L1867.2 826zM1915.7 854L1939.95 868L1939.95 896L1915.7 910L1891.45 896L1891.45 868zM1891.45 896L1915.7 910L1915.7 938L1891.45 952L1867.2 938L1867.2 910zM1915.7 938L1939.95 952L1939.95 980L1915.7 994L1891.45 980L1891.45 952zM1891.45 980L1915.7 994L1915.7 1022L1891.45 1036L1867.2 1022L1867.2 994zM1939.95 -28L1964.2 -14L1964.2 14L1939.95 28L1915.7 14L1915.7 -14zM1964.2 14L1988.45 28L1988.45 56L1964.2 70L1939.95 56L1939.95 28zM1939.95 56L1964.2 70L1964.2 98L1939.95 112L1915.7 98L1915.7 70zM1964.2 98L1988.45 112L1988.45 140L1964.2 154L1939.95 140L1939.95 112zM1939.95 140L1964.2 154L1964.2 182L1939.95 196L1915.7 182L1915.7 154zM1964.2 182L1988.45 196L1988.45 224L1964.2 238L1939.95 224L1939.95 196zM1939.95 224L1964.2 238L1964.2 266L1939.95 280L1915.7 266L1915.7 238zM1964.2 266L1988.45 280L1988.45 308L1964.2 322L1939.95 308L1939.95 280zM1939.95 308L1964.2 322L1964.2 350L1939.95 364L1915.7 350L1915.7 322zM1964.2 350L1988.45 364L1988.45 392L1964.2 406L1939.95 392L1939.95 364zM1939.95 392L1964.2 406L1964.2 434L1939.95 448L1915.7 434L1915.7 406zM1964.2 434L1988.45 448L1988.45 476L1964.2 490L1939.95 476L1939.95 448zM1939.95 476L1964.2 490L1964.2 518L1939.95 532L1915.7 518L1915.7 490zM1964.2 518L1988.45 532L1988.45 560L1964.2 574L1939.95 560L1939.95 532zM1939.95 560L1964.2 574L1964.2 602L1939.95 616L1915.7 602L1915.7 574zM1964.2 602L1988.45 616L1988.45 644L1964.2 658L1939.95 644L1939.95 616zM1939.95 644L1964.2 658L1964.2 686L1939.95 700L1915.7 686L1915.7 658zM1964.2 686L1988.45 700L1988.45 728L1964.2 742L1939.95 728L1939.95 700zM1939.95 728L1964.2 742L1964.2 770L1939.95 784L1915.7 770L1915.7 742zM1964.2 770L1988.45 784L1988.45 812L1964.2 826L1939.95 812L1939.95 784zM1939.95 812L1964.2 826L1964.2 854L1939.95 868L1915.7 854L1915.7 826zM1964.2 854L1988.45 868L1988.45 896L1964.2 910L1939.95 896L1939.95 868zM1939.95 896L1964.2 910L1964.2 938L1939.95 952L1915.7 938L1915.7 910zM1964.2 938L1988.45 952L1988.45 980L1964.2 994L1939.95 980L1939.95 952zM1939.95 980L1964.2 994L1964.2 1022L1939.95 1036L1915.7 1022L1915.7 994z" stroke="rgba(149, 149, 149, 0.13)" stroke-width="2"></path></g><defs><mask id="SvgjsMask2833"><rect width="1950" height="1000" fill="#ffffff"></rect></mask><linearGradient x1="50%" y1="100%" x2="50%" y2="0%" gradientUnits="userSpaceOnUse" id="SvgjsLinearGradient2834"><stop stop-color="rgba(255, 235, 235, 1)" offset="0"></stop><stop stop-color="rgba(255, 255, 255, 1)" offset="1"></stop></linearGradient></defs></svg>